PathFileType	4	(X/Y/Z)	data/andrienko/jump_jo 3.trc
DataRate	CameraRate	NumFrames	NumMarkers	Units	OrigDataRate	OrigDataStartFrame	OrigNumFrames
400	400	4	71	mm	400	343	456
Frame#	Time	r_asis			l_asis			r_psis			sacrum			l_psis			r_illiac			r_troch			l_illiac			l_troch			r_thigh1			r_thigh2			r_thigh3			r_thigh4			rl_knee			rm_knee			r_shank1			r_shank2			r_shank3			r_shank4			r_heel			rl_ankle			rm_ankle			r_metatarsal5			r_metatarsal1			l_thigh1			l_thigh2			l_thigh3			l_thigh4			ll_knee			lm_knee			l_shank1			l_shank2			l_shank3			l_shank4			l_heel			ll_ankle			lm_ankle			l_metatarsal5			l_metatarsal1			back_down			neck			back_right			back_left			head_up			head_front			head_left			head_right			r_shoulder			r_humerus1			r_humerus2			r_humerus3			rl_elbow			rm_elbow			r_radius1			r_radius2			r_radius3			rl_wrist			rm_wrist			r_hand			l_shoulder			l_humerus1			l_humerus2			l_humerus3			ll_elbow			lm_elbow			l_radius1			l_radius2			l_radius3			ll_wrist			lm_wrist			l_hand		
		X1	Y1	Z1	X2	Y2	Z2	X3	Y3	Z3	X4	Y4	Z4	X5	Y5	Z5	X6	Y6	Z6	X7	Y7	Z7	X8	Y8	Z8	X9	Y9	Z9	X10	Y10	Z10	X11	Y11	Z11	X12	Y12	Z12	X13	Y13	Z13	X14	Y14	Z14	X15	Y15	Z15	X16	Y16	Z16	X17	Y17	Z17	X18	Y18	Z18	X19	Y19	Z19	X20	Y20	Z20	X21	Y21	Z21	X22	Y22	Z22	X23	Y23	Z23	X24	Y24	Z24	X25	Y25	Z25	X26	Y26	Z26	X27	Y27	Z27	X28	Y28	Z28	X29	Y29	Z29	X30	Y30	Z30	X31	Y31	Z31	X32	Y32	Z32	X33	Y33	Z33	X34	Y34	Z34	X35	Y35	Z35	X36	Y36	Z36	X37	Y37	Z37	X38	Y38	Z38	X39	Y39	Z39	X40	Y40	Z40	X41	Y41	Z41	X42	Y42	Z42	X43	Y43	Z43	X44	Y44	Z44	X45	Y45	Z45	X46	Y46	Z46	X47	Y47	Z47	X48	Y48	Z48	X49	Y49	Z49	X50	Y50	Z50	X51	Y51	Z51	X52	Y52	Z52	X53	Y53	Z53	X54	Y54	Z54	X55	Y55	Z55	X56	Y56	Z56	X57	Y57	Z57	X58	Y58	Z58	X59	Y59	Z59	X60	Y60	Z60	X61	Y61	Z61	X62	Y62	Z62	X63	Y63	Z63	X64	Y64	Z64	X65	Y65	Z65	X66	Y66	Z66	X67	Y67	Z67	X68	Y68	Z68	X69	Y69	Z69	X70	Y70	Z70	X71	Y71	Z71
343	0.8550	-206.293	1091.078	477.157	-226.991	1083.821	264.580	-377.431	1175.794	469.721	-379.585	1199.698	380.996	-394.137	1175.541	304.081	-238.045	1189.727	535.447	-277.128	1004.318	575.943	-257.743	1180.467	219.734	-323.780	992.176	186.478	-299.076	923.604	589.600	-224.533	912.618	572.361	-254.590	788.756	585.401	-312.750	801.906	595.247	-320.199	662.603	594.901	-301.888	629.453	453.834	-389.334	517.158	602.572	-310.959	514.816	615.489	-318.577	406.941	607.705	-379.486	408.387	597.284	-410.889	255.561	522.196	-366.377	232.268	585.627	-307.071	238.742	501.518	-263.800	101.672	598.940	-215.549	126.974	519.395	-383.184	880.883	204.275	-312.252	880.482	174.100	-312.753	757.151	172.331	-374.616	756.269	199.181	-341.253	657.600	179.127	-317.552	620.254	314.854	-423.685	502.237	175.482	-355.916	504.049	152.492	-352.410	399.853	157.418	-409.970	392.425	178.994	-428.131	232.720	233.025	-376.323	223.126	173.868	-329.938	236.044	258.761	-263.698	86.008	161.075	-218.414	108.602	237.130	-382.759	1274.049	382.276	-338.501	1629.473	396.154	-383.438	1509.905	488.050	-384.581	1521.981	303.820	-252.123	1877.433	409.422	-118.826	1812.469	399.043	-216.271	1786.786	306.199	-223.301	1782.961	493.739	-253.759	1640.486	541.721	-214.153	1494.385	656.413	-323.255	1562.943	685.423	-295.108	1467.355	712.925	-342.242	1383.818	766.917	-416.705	1400.568	701.271	-264.536	1314.563	680.682	-347.580	1261.564	754.409	-291.598	1218.715	680.537	-312.553	1188.945	582.585	-298.715	1148.371	662.642	-248.924	1144.775	598.830	-266.417	1670.133	261.944	-235.940	1534.724	110.938	-349.030	1601.934	104.925	-322.794	1510.836	58.591	-349.803	1452.361	16.672	-435.814	1445.436	81.733	-333.600	1366.165	148.886	-316.900	1328.758	23.669	-320.334	1272.417	107.693	-319.420	1206.981	94.625	-353.987	1243.950	167.785	-301.153	1197.736	161.412
344	0.8575	-204.975	1097.847	477.021	-225.547	1090.934	264.421	-376.196	1182.055	470.406	-378.605	1206.615	380.644	-393.465	1182.285	303.227	-235.385	1196.444	535.439	-276.477	1010.382	576.261	-254.900	1186.907	219.851	-323.610	998.736	186.202	-299.081	929.762	588.960	-224.326	918.878	572.844	-254.120	794.974	586.801	-312.585	808.046	595.747	-319.164	668.783	594.704	-298.149	636.982	454.824	-390.077	523.954	600.990	-312.117	520.523	615.811	-320.808	412.927	607.492	-381.764	415.143	595.833	-411.385	262.757	520.183	-369.046	238.519	584.234	-307.344	244.767	502.008	-267.679	107.320	600.130	-217.190	132.226	521.967	-382.854	888.451	205.090	-312.730	887.507	173.541	-313.694	764.233	171.904	-375.158	763.538	199.703	-340.871	664.718	179.414	-315.557	628.879	314.229	-424.881	509.460	177.295	-357.446	510.379	153.388	-354.228	406.541	158.836	-411.828	399.458	181.077	-428.993	238.600	237.834	-379.113	228.971	177.267	-329.879	242.856	260.589	-265.758	92.385	162.006	-218.093	116.079	236.223	-381.378	1279.756	382.108	-340.041	1634.659	396.517	-383.662	1514.853	488.386	-385.351	1527.760	303.812	-253.247	1882.969	409.641	-119.760	1818.349	399.090	-217.223	1791.954	306.162	-224.232	1788.301	493.997	-255.209	1645.487	542.187	-214.218	1499.025	656.262	-323.456	1567.114	686.175	-294.769	1471.469	713.128	-341.242	1387.834	767.156	-415.922	1404.282	701.727	-263.171	1319.195	680.921	-345.485	1265.291	754.586	-289.312	1223.151	680.637	-310.395	1193.281	582.713	-295.706	1152.594	662.667	-246.458	1149.260	598.262	-267.904	1675.667	261.969	-236.044	1540.896	110.509	-349.707	1607.175	105.222	-322.964	1516.762	58.183	-349.372	1458.088	16.204	-435.544	1450.511	80.962	-332.967	1371.964	148.354	-315.737	1334.709	23.185	-318.987	1278.303	107.257	-317.461	1212.756	94.536	-352.816	1249.793	167.385	-299.537	1203.514	161.350
345	0.8600	-203.635	1105.209	477.024	-224.000	1098.655	264.393	-375.376	1188.358	471.266	-377.720	1213.393	380.541	-392.462	1188.984	302.703	-232.953	1202.886	535.337	-276.010	1016.284	576.474	-252.357	1193.197	220.001	-323.642	1005.144	186.001	-299.019	935.836	588.570	-223.897	925.299	573.663	-253.058	801.345	587.981	-311.825	814.131	596.039	-318.103	674.565	594.450	-293.844	644.260	455.831	-391.390	530.377	599.181	-312.965	526.006	615.789	-322.758	418.602	607.187	-383.339	421.054	594.816	-411.684	270.483	518.456	-371.293	245.545	583.326	-307.804	250.772	502.506	-272.122	112.892	601.381	-219.658	136.744	524.203	-382.624	895.580	205.494	-312.873	894.683	173.073	-313.593	771.309	170.999	-375.182	771.101	200.674	-340.567	671.622	179.148	-312.815	637.246	313.147	-425.969	516.343	179.343	-358.888	516.653	154.191	-357.456	412.133	160.185	-413.852	406.261	183.611	-429.670	245.203	242.717	-381.608	235.039	180.545	-329.826	249.613	262.535	-268.543	98.350	163.347	-218.486	123.015	235.680	-378.812	1284.976	381.835	-341.561	1639.677	396.879	-384.191	1519.821	488.881	-386.144	1533.175	303.831	-254.764	1888.687	410.035	-120.666	1824.267	399.147	-217.967	1797.197	306.111	-224.986	1793.541	494.220	-256.507	1650.323	542.746	-214.253	1503.493	656.122	-323.630	1571.051	687.024	-294.478	1475.478	713.441	-340.227	1391.623	767.488	-415.113	1407.719	702.192	-261.640	1323.695	681.176	-343.439	1268.933	754.856	-286.962	1227.514	680.792	-308.271	1197.417	582.991	-292.606	1156.730	662.747	-244.055	1153.656	597.642	-269.290	1680.996	261.887	-236.154	1546.719	110.038	-350.261	1612.426	105.433	-322.841	1522.343	57.755	-348.740	1463.554	15.809	-435.139	1455.273	80.113	-332.220	1377.468	147.836	-314.518	1340.276	22.765	-317.652	1283.855	106.844	-315.513	1218.245	94.476	-351.082	1255.375	166.969	-298.101	1209.122	161.328
346	0.8625	-202.262	1113.153	477.159	-222.355	1106.963	264.492	-374.615	1194.749	472.030	-377.163	1220.234	380.644	-391.714	1195.827	302.395	-230.884	1209.124	535.142	-275.444	1022.266	576.549	-250.120	1199.278	220.188	-323.768	1011.651	185.893	-299.005	941.864	588.445	-223.515	931.895	574.744	-251.659	807.948	589.000	-310.680	820.135	596.282	-317.295	680.016	594.060	-289.321	651.103	457.000	-392.216	536.658	597.159	-314.140	531.628	615.733	-324.422	424.295	606.732	-385.683	428.009	593.042	-412.138	278.515	517.071	-374.616	252.422	582.437	-308.590	256.770	502.756	-276.914	118.560	602.661	-222.735	140.874	526.167	-382.403	902.565	205.644	-312.851	901.824	172.691	-314.242	777.961	171.472	-374.706	778.147	200.496	-340.205	678.096	178.861	-309.741	645.209	311.827	-427.120	523.030	181.586	-360.462	522.675	155.221	-359.850	417.944	161.822	-415.536	412.616	186.491	-430.200	252.581	247.181	-383.866	241.464	183.942	-329.634	256.591	264.562	-271.803	104.029	165.125	-219.580	129.277	235.660	-378.093	1290.917	381.798	-343.023	1644.573	397.199	-384.800	1524.501	489.421	-386.914	1538.478	303.885	-256.462	1894.870	410.535	-121.440	1830.306	399.179	-218.686	1802.571	306.098	-225.646	1798.962	494.435	-257.759	1655.186	543.414	-214.575	1507.760	655.776	-323.678	1574.803	688.081	-294.109	1479.260	713.800	-339.289	1395.204	767.983	-414.261	1410.960	702.659	-260.098	1327.927	681.364	-341.270	1272.710	755.388	-284.622	1231.667	680.990	-306.235	1201.563	583.367	-289.447	1160.837	662.920	-242.027	1157.700	596.991	-270.398	1686.195	261.669	-236.164	1552.096	109.687	-350.624	1617.169	105.342	-322.957	1527.446	57.334	-348.314	1468.720	15.206	-434.659	1459.876	79.205	-331.543	1382.854	147.362	-313.286	1345.614	22.340	-316.419	1289.257	106.449	-313.737	1223.433	94.448	-350.042	1260.665	166.619	-296.613	1214.488	161.251
